<svg width="241" height="43" viewBox="0 0 241 43" fill="none" xmlns="http://www.w3.org/2000/svg">
<path d="M7.56 42V37.302L11.988 35.952V10.302H6.858L5.508 15.432H0.54V4.092L31.86 3.93V15.432H26.838L25.488 10.302H20.358V35.952L24.84 37.302V42H7.56ZM31.5689 0.581999L43.8269 0.149998V15.972C46.7789 13.524 49.8029 12.3 52.8989 12.3C55.5989 12.3 57.6689 13.164 59.1089 14.892C60.5489 16.584 61.2689 18.96 61.2689 22.02V36.33L65.0489 37.68V42H50.4689V37.68L53.2769 36.384V23.262C53.2769 20.382 52.0889 18.942 49.7129 18.942C48.8129 18.942 47.8769 19.194 46.9049 19.698C45.9329 20.166 45.1769 20.634 44.6369 21.102L43.8269 21.804V36.33L46.6889 37.68V42H31.5689V37.68L35.8889 36.33V5.982L31.5689 4.902V0.581999ZM92.3725 29.04L74.4445 29.202C74.5885 31.434 75.2365 33.162 76.3885 34.386C77.5765 35.61 79.0885 36.222 80.9245 36.222C82.2565 36.222 83.6785 36.024 85.1905 35.628C86.7025 35.196 87.8725 34.764 88.7005 34.332L89.9965 33.684L92.3185 38.004C91.9225 38.328 91.3645 38.742 90.6445 39.246C89.9245 39.75 88.4845 40.434 86.3245 41.298C84.1645 42.126 82.0585 42.54 80.0065 42.54C75.4345 42.54 71.9425 41.28 69.5305 38.76C67.1545 36.204 65.9665 32.604 65.9665 27.96C65.9665 23.172 67.2445 19.374 69.8005 16.566C72.3565 13.722 75.8845 12.3 80.3845 12.3C84.3445 12.3 87.3865 13.434 89.5105 15.702C91.6345 17.97 92.6965 21.066 92.6965 24.99L92.3725 29.04ZM79.8445 18.618C78.3685 18.618 77.1625 19.122 76.2265 20.13C75.3265 21.138 74.7685 22.488 74.5525 24.18H84.2725C84.2725 20.472 82.7965 18.618 79.8445 18.618ZM120.074 37.302V42H104.414V37.302L108.464 35.952V10.302L104.414 8.682V4.2L117.374 3.93L131.954 28.878V10.302L128.012 8.682V4.2L143.402 3.93V8.682L139.352 10.302V42H130.334L115.862 17.538V35.952L120.074 37.302ZM171.058 29.04L153.13 29.202C153.274 31.434 153.922 33.162 155.074 34.386C156.262 35.61 157.774 36.222 159.61 36.222C160.942 36.222 162.364 36.024 163.876 35.628C165.388 35.196 166.558 34.764 167.386 34.332L168.682 33.684L171.004 38.004C170.608 38.328 170.05 38.742 169.33 39.246C168.61 39.75 167.17 40.434 165.01 41.298C162.85 42.126 160.744 42.54 158.692 42.54C154.12 42.54 150.628 41.28 148.216 38.76C145.84 36.204 144.652 32.604 144.652 27.96C144.652 23.172 145.93 19.374 148.486 16.566C151.042 13.722 154.57 12.3 159.07 12.3C163.03 12.3 166.072 13.434 168.196 15.702C170.32 17.97 171.382 21.066 171.382 24.99L171.058 29.04ZM158.53 18.618C157.054 18.618 155.848 19.122 154.912 20.13C154.012 21.138 153.454 22.488 153.238 24.18H162.958C162.958 20.472 161.482 18.618 158.53 18.618ZM198.147 12.57L204.033 33.252L207.219 18.24L203.925 17.43V13.11L217.749 12.84V17.43L214.887 18.078L207.705 42H199.443L195.177 28.23L194.205 24.018L192.855 29.904L188.913 42H180.705L173.361 18.186L170.985 17.43V13.11L185.133 12.84V17.43L181.731 18.078L185.295 33.252L191.019 13.758L198.147 12.57ZM223.091 32.55L223.523 36.33C224.711 36.69 226.187 36.87 227.951 36.87C230.795 36.87 232.217 35.898 232.217 33.954C232.217 33.126 231.731 32.424 230.759 31.848C229.787 31.236 228.599 30.714 227.195 30.282C225.791 29.85 224.387 29.346 222.983 28.77C221.579 28.158 220.391 27.24 219.419 26.016C218.447 24.792 217.961 23.298 217.961 21.534C217.961 18.366 219.023 16.044 221.147 14.568C223.271 13.056 225.917 12.3 229.085 12.3C230.525 12.3 232.073 12.444 233.729 12.732C235.421 12.984 236.753 13.236 237.725 13.488L239.129 13.92C239.057 15.72 238.985 18.42 238.913 22.02H234.161L233.351 18.51C232.415 18.15 231.227 17.97 229.787 17.97C228.671 17.97 227.789 18.222 227.141 18.726C226.493 19.194 226.169 19.86 226.169 20.724C226.169 21.552 226.655 22.254 227.627 22.83C228.635 23.406 229.823 23.91 231.191 24.342C232.595 24.774 233.999 25.278 235.403 25.854C236.807 26.394 237.995 27.258 238.967 28.446C239.975 29.634 240.479 31.092 240.479 32.82C240.479 35.88 239.345 38.274 237.077 40.002C234.845 41.694 231.839 42.54 228.059 42.54C226.547 42.54 224.963 42.432 223.307 42.216C221.651 42.036 220.373 41.856 219.473 41.676L218.123 41.352V32.55H223.091Z" fill="black"/>
</svg>
